<?xml version="1.0" encoding="utf-8"?>
<!-- Generator: Adobe Illustrator 19.0.0, SVG Export Plug-In . SVG Version: 6.00 Build 0)  -->
<svg version="1.1" id="layer" xmlns="http://www.w3.org/2000/svg" xmlns:xlink="http://www.w3.org/1999/xlink" x="0px" y="0px"
	 viewBox="-153 -46 652 652" style="enable-background:new -153 -46 652 652;" xml:space="preserve">
<style type="text/css">
	.st0{fill:#009BDE;}
	.st1{fill:#0D5384;}
	.st2{fill:#FF6C0C;}
	.st3{fill:#F99C25;}
</style>
<path class="st0" d="M165.7,270h-8.9v-1.1c0.8-0.1,1.4-0.1,2-0.3c0.5-0.2,0.8-0.3,0.8-0.6c0-0.1,0-0.2,0-0.3c0-0.1,0-0.2-0.1-0.4
	l-1.8-4.8h-7.5c-0.3,0.7-0.5,1.3-0.7,1.8c-0.2,0.5-0.3,1-0.5,1.5c-0.1,0.4-0.2,0.8-0.3,1.1c-0.1,0.3-0.1,0.5-0.1,0.7
	c0,0.4,0.3,0.7,1,0.9s1.4,0.4,2.1,0.4v1.1h-8.1v-1.1c0.3,0,0.6-0.1,1-0.2c0.4-0.1,0.7-0.2,1-0.4c0.4-0.3,0.7-0.6,0.9-0.9
	c0.2-0.3,0.4-0.7,0.7-1.2c1.1-2.7,2.3-5.7,3.6-9.1c1.3-3.4,2.5-6.4,3.5-9h1.2l7.2,18.5c0.2,0.4,0.3,0.7,0.5,1
	c0.2,0.2,0.5,0.5,0.8,0.7c0.2,0.1,0.5,0.3,0.9,0.4c0.4,0.1,0.7,0.1,0.9,0.2L165.7,270L165.7,270z M157.1,261.2l-3.3-8.3l-3.2,8.3
	H157.1z M191.6,270h-7.3v-1c0.2,0,0.5,0,0.7-0.1c0.2,0,0.4-0.1,0.6-0.1c0.3-0.1,0.5-0.2,0.6-0.5c0.1-0.2,0.2-0.5,0.2-0.9v-7.7
	c0-1.1-0.2-1.9-0.7-2.4c-0.5-0.6-1.1-0.9-1.8-0.9c-0.5,0-1,0.1-1.4,0.2c-0.4,0.1-0.8,0.4-1.2,0.6c-0.3,0.2-0.5,0.5-0.7,0.7
	c-0.2,0.3-0.3,0.5-0.4,0.6v8.6c0,0.4,0.1,0.6,0.2,0.9c0.1,0.2,0.3,0.4,0.6,0.5c0.2,0.1,0.4,0.2,0.6,0.2c0.2,0,0.4,0.1,0.7,0.1v1
	h-7.1v-1c0.2,0,0.5,0,0.7-0.1c0.2,0,0.4-0.1,0.6-0.1c0.3-0.1,0.5-0.2,0.6-0.5c0.1-0.2,0.2-0.5,0.2-0.9v-7.7c0-1.1-0.2-1.9-0.7-2.4
	c-0.5-0.6-1.1-0.9-1.8-0.9c-0.5,0-1,0.1-1.4,0.2c-0.4,0.2-0.8,0.4-1.2,0.6c-0.3,0.2-0.5,0.5-0.7,0.7c-0.2,0.3-0.4,0.5-0.5,0.6v8.6
	c0,0.3,0.1,0.6,0.2,0.9c0.1,0.2,0.4,0.4,0.6,0.5c0.2,0.1,0.4,0.2,0.7,0.2c0.2,0.1,0.5,0.1,0.7,0.1v1h-7.3v-1c0.2,0,0.5,0,0.7-0.1
	c0.2,0,0.5-0.1,0.6-0.1c0.3-0.1,0.5-0.2,0.6-0.5c0.1-0.2,0.2-0.5,0.2-0.9v-9.3c0-0.3-0.1-0.6-0.2-0.9c-0.1-0.3-0.4-0.5-0.6-0.7
	c-0.2-0.1-0.4-0.2-0.7-0.3c-0.3-0.1-0.6-0.1-0.9-0.1v-1l5-0.3l0.2,0.2v2.1h0.1c0.3-0.3,0.6-0.6,0.9-0.9c0.4-0.3,0.7-0.6,1-0.8
	c0.4-0.2,0.8-0.4,1.3-0.6c0.5-0.2,1.1-0.2,1.7-0.2c1,0,1.8,0.3,2.5,0.8c0.7,0.5,1.2,1.1,1.5,1.9c0.4-0.4,0.7-0.7,1-0.9
	c0.3-0.3,0.6-0.6,1.1-0.9c0.4-0.3,0.8-0.5,1.4-0.6c0.5-0.2,1.1-0.2,1.7-0.2c1.3,0,2.3,0.4,3,1.2c0.7,0.8,1.1,2.1,1.1,3.8v7.6
	c0,0.4,0.1,0.6,0.2,0.9c0.1,0.2,0.3,0.4,0.6,0.5c0.2,0.1,0.5,0.2,0.7,0.2c0.2,0,0.5,0.1,0.8,0.1L191.6,270L191.6,270z M206.7,266.5
	c-0.6,1.2-1.5,2.1-2.5,2.8s-2.3,1.1-3.6,1.1c-1.2,0-2.3-0.2-3.2-0.6c-0.9-0.4-1.6-1-2.2-1.7c-0.6-0.7-1-1.6-1.3-2.5s-0.4-2-0.4-3.1
	c0-1,0.2-1.9,0.5-2.9c0.3-0.9,0.8-1.8,1.4-2.5c0.6-0.7,1.3-1.3,2.1-1.7c0.9-0.4,1.8-0.7,2.9-0.7c1.1,0,2,0.2,2.8,0.5
	c0.8,0.3,1.4,0.8,1.9,1.4c0.5,0.6,0.8,1.2,1,2c0.2,0.8,0.3,1.6,0.3,2.5v1h-9.9c0,1,0.1,1.9,0.3,2.7c0.2,0.8,0.5,1.5,0.9,2.1
	c0.4,0.6,0.9,1.1,1.5,1.4c0.6,0.3,1.4,0.5,2.3,0.5c0.9,0,1.7-0.2,2.3-0.6s1.3-1.2,1.9-2.3L206.7,266.5z M203.3,260.8
	c0-0.6,0-1.2-0.1-1.8c-0.1-0.6-0.2-1.2-0.5-1.6c-0.2-0.5-0.6-0.8-1-1.1c-0.4-0.3-0.9-0.4-1.6-0.4c-1.1,0-1.9,0.4-2.6,1.3
	c-0.7,0.9-1.1,2.1-1.1,3.7L203.3,260.8L203.3,260.8z M219.8,257c0,0.5-0.1,1-0.4,1.4c-0.2,0.4-0.6,0.6-1.2,0.6c-0.6,0-1-0.1-1.3-0.4
	c-0.3-0.3-0.4-0.6-0.4-1c0-0.2,0-0.4,0.1-0.6c0-0.2,0.1-0.4,0.1-0.5c-0.5,0-1,0.2-1.7,0.6c-0.6,0.4-1.2,0.9-1.6,1.6v8.7
	c0,0.4,0.1,0.6,0.2,0.9c0.1,0.2,0.4,0.4,0.6,0.5c0.3,0.1,0.6,0.2,1,0.2c0.4,0.1,0.7,0.1,1,0.1v1h-7.9v-1c0.2,0,0.5,0,0.7-0.1
	c0.2,0,0.5-0.1,0.6-0.1c0.3-0.1,0.5-0.2,0.6-0.5c0.1-0.2,0.2-0.5,0.2-0.9v-9.2c0-0.3-0.1-0.6-0.2-0.9c-0.1-0.3-0.4-0.5-0.6-0.7
	c-0.2-0.1-0.4-0.2-0.7-0.3c-0.3-0.1-0.5-0.1-0.8-0.1v-1l5-0.3l0.2,0.2v2.1h0.1c0.6-0.8,1.3-1.4,2.1-1.9s1.5-0.6,2.1-0.6
	s1.2,0.2,1.6,0.6C219.7,255.7,219.8,256.3,219.8,257z M228.4,270h-7.2v-1c0.2,0,0.5,0,0.7-0.1c0.2,0,0.5-0.1,0.6-0.1
	c0.3-0.1,0.5-0.2,0.6-0.5c0.1-0.2,0.2-0.5,0.2-0.9v-9.2c0-0.3-0.1-0.6-0.2-0.9c-0.1-0.3-0.4-0.5-0.6-0.7c-0.2-0.1-0.5-0.2-0.8-0.3
	s-0.7-0.1-1-0.2v-1l5.3-0.3l0.2,0.2v12.2c0,0.4,0.1,0.6,0.2,0.9c0.1,0.2,0.3,0.4,0.6,0.5c0.2,0.1,0.4,0.2,0.6,0.2
	c0.2,0.1,0.4,0.1,0.7,0.1L228.4,270L228.4,270z M226.5,249c0,0.6-0.2,1.1-0.6,1.5c-0.4,0.4-0.8,0.6-1.4,0.6c-0.5,0-1-0.2-1.3-0.6
	c-0.4-0.4-0.6-0.9-0.6-1.4c0-0.6,0.2-1,0.6-1.5c0.4-0.4,0.8-0.6,1.3-0.6c0.6,0,1,0.2,1.4,0.6C226.3,248,226.5,248.5,226.5,249z
	 M237.1,270.4c-2.2,0-3.9-0.7-5.1-2.1c-1.2-1.4-1.8-3.4-1.8-5.8c0-1.1,0.2-2,0.5-2.9c0.3-0.9,0.8-1.7,1.4-2.5
	c0.6-0.7,1.3-1.3,2.2-1.7c0.9-0.4,1.9-0.7,2.9-0.7c1.5,0,2.7,0.4,3.6,1.1c0.9,0.7,1.4,1.7,1.4,2.9c0,0.5-0.1,0.9-0.4,1.3
	c-0.2,0.4-0.6,0.6-1.2,0.6c-0.6,0-1.1-0.1-1.4-0.5c-0.3-0.3-0.5-0.6-0.5-1c0-0.5,0.1-0.9,0.2-1.4c0.1-0.5,0.2-0.8,0.2-1.1
	c-0.2-0.3-0.5-0.5-0.8-0.6c-0.4-0.1-0.7-0.2-1.2-0.2c-0.5,0-0.9,0.1-1.4,0.3c-0.4,0.2-0.9,0.6-1.3,1.1c-0.4,0.5-0.7,1.2-0.9,2
	c-0.2,0.9-0.3,1.9-0.3,3.1c0,1.9,0.4,3.4,1.2,4.6c0.8,1.2,1.9,1.8,3.3,1.8c1,0,1.8-0.2,2.5-0.7c0.7-0.5,1.3-1.2,1.8-2.1l1,0.6
	c-0.7,1.2-1.5,2.1-2.6,2.8C239.4,270,238.3,270.4,237.1,270.4z M258.4,269.7c-0.5,0.2-0.9,0.3-1.2,0.4c-0.4,0.1-0.8,0.2-1.2,0.2
	c-0.8,0-1.4-0.2-1.9-0.6c-0.5-0.4-0.8-0.9-0.9-1.6h-0.1c-0.7,0.7-1.4,1.3-2.1,1.7c-0.8,0.4-1.7,0.6-2.7,0.6c-1.1,0-2-0.3-2.8-1
	c-0.7-0.7-1.1-1.6-1.1-2.7c0-0.6,0.1-1.1,0.2-1.5c0.2-0.5,0.4-0.9,0.7-1.2c0.3-0.3,0.6-0.6,1-0.8c0.4-0.2,0.8-0.4,1.2-0.6
	c0.5-0.2,1.4-0.5,2.8-1c1.4-0.5,2.3-0.8,2.8-1.1V259c0-0.1,0-0.4-0.1-0.8c-0.1-0.4-0.2-0.7-0.4-1.1c-0.2-0.4-0.5-0.7-0.9-1
	c-0.4-0.3-0.9-0.4-1.6-0.4c-0.5,0-0.9,0.1-1.3,0.2c-0.4,0.2-0.7,0.3-0.8,0.5c0,0.2,0,0.5,0.1,0.9s0.1,0.8,0.1,1.1
	c0,0.4-0.2,0.7-0.5,1c-0.3,0.3-0.8,0.4-1.3,0.4c-0.5,0-0.9-0.2-1.1-0.5c-0.2-0.4-0.4-0.8-0.4-1.2c0-0.5,0.2-0.9,0.5-1.3
	c0.3-0.4,0.8-0.8,1.3-1.1c0.5-0.3,1-0.5,1.7-0.7c0.6-0.2,1.3-0.3,1.9-0.3c0.8,0,1.6,0.1,2.2,0.2c0.6,0.1,1.2,0.4,1.7,0.7
	c0.5,0.4,0.9,0.9,1.2,1.5c0.3,0.6,0.4,1.5,0.4,2.5c0,1.4,0,2.7,0,3.8c0,1.1,0,2.3,0,3.7c0,0.4,0.1,0.7,0.2,0.9
	c0.1,0.2,0.3,0.4,0.6,0.6c0.1,0.1,0.4,0.1,0.7,0.1c0.3,0,0.7,0,1,0L258.4,269.7L258.4,269.7z M253.2,261.7c-0.9,0.3-1.6,0.5-2.3,0.7
	c-0.6,0.2-1.2,0.5-1.8,0.9c-0.5,0.3-0.9,0.8-1.2,1.2c-0.3,0.5-0.4,1-0.4,1.7c0,0.8,0.2,1.5,0.7,1.9c0.4,0.4,1,0.6,1.7,0.6
	c0.7,0,1.3-0.2,1.9-0.5c0.5-0.4,1-0.8,1.4-1.2L253.2,261.7z M276.4,270h-7.3v-1c0.2,0,0.5,0,0.8-0.1c0.3,0,0.5-0.1,0.7-0.1
	c0.3-0.1,0.5-0.2,0.6-0.5c0.1-0.2,0.2-0.5,0.2-0.9v-7.7c0-1.1-0.2-1.9-0.8-2.5c-0.5-0.6-1.1-0.9-1.8-0.9c-0.5,0-1,0.1-1.5,0.2
	c-0.4,0.2-0.8,0.4-1.2,0.6c-0.3,0.2-0.6,0.5-0.8,0.7c-0.2,0.3-0.3,0.5-0.4,0.6v8.6c0,0.3,0.1,0.6,0.2,0.8s0.4,0.4,0.6,0.5
	c0.2,0.1,0.4,0.2,0.7,0.2c0.2,0.1,0.5,0.1,0.8,0.1v1h-7.3v-1c0.2,0,0.5,0,0.7-0.1c0.2,0,0.5-0.1,0.6-0.1c0.3-0.1,0.5-0.2,0.6-0.5
	c0.1-0.2,0.2-0.5,0.2-0.9v-9.2c0-0.3-0.1-0.7-0.2-0.9c-0.1-0.3-0.4-0.5-0.6-0.7c-0.2-0.1-0.4-0.2-0.7-0.3c-0.3-0.1-0.5-0.1-0.8-0.1
	v-1l5-0.3l0.2,0.2v2.1h0.1c0.2-0.2,0.5-0.5,0.9-0.9c0.4-0.3,0.7-0.6,1-0.8c0.4-0.2,0.8-0.4,1.3-0.6c0.5-0.2,1.1-0.2,1.7-0.2
	c1.4,0,2.5,0.4,3.2,1.3c0.7,0.9,1,2.1,1,3.6v7.8c0,0.4,0.1,0.6,0.2,0.9c0.1,0.2,0.3,0.4,0.6,0.5c0.2,0.1,0.5,0.2,0.6,0.2
	c0.2,0,0.4,0.1,0.7,0.1L276.4,270L276.4,270z M306.2,270h-8.9v-1.1c0.8-0.1,1.4-0.1,2-0.3c0.5-0.2,0.8-0.3,0.8-0.6
	c0-0.1,0-0.2,0-0.3c0-0.1,0-0.2-0.1-0.4l-1.8-4.8h-7.5c-0.3,0.7-0.5,1.3-0.7,1.8c-0.2,0.5-0.3,1-0.5,1.5c-0.1,0.4-0.2,0.8-0.3,1.1
	c-0.1,0.3-0.1,0.5-0.1,0.7c0,0.4,0.3,0.7,1,0.9s1.4,0.4,2.1,0.4v1.1H284v-1.1c0.3,0,0.6-0.1,1-0.2c0.4-0.1,0.7-0.2,1-0.4
	c0.4-0.3,0.7-0.6,0.9-0.9c0.2-0.3,0.4-0.7,0.7-1.2c1.1-2.7,2.3-5.7,3.6-9.1c1.3-3.4,2.5-6.4,3.5-9h1.2l7.2,18.5
	c0.2,0.4,0.3,0.7,0.5,1c0.2,0.2,0.5,0.5,0.8,0.7c0.2,0.1,0.5,0.3,0.9,0.4c0.4,0.1,0.7,0.1,0.9,0.2L306.2,270L306.2,270z
	 M297.5,261.2l-3.3-8.3l-3.2,8.3H297.5z M313.5,270.4c-2.2,0-3.9-0.7-5.1-2.1c-1.2-1.4-1.8-3.4-1.8-5.8c0-1.1,0.2-2,0.5-2.9
	c0.3-0.9,0.8-1.7,1.4-2.5c0.6-0.7,1.3-1.3,2.2-1.7c0.9-0.4,1.9-0.7,2.9-0.7c1.5,0,2.7,0.4,3.6,1.1c0.9,0.7,1.4,1.7,1.4,2.9
	c0,0.5-0.1,0.9-0.4,1.3c-0.2,0.4-0.6,0.6-1.2,0.6c-0.6,0-1.1-0.1-1.4-0.5c-0.3-0.3-0.5-0.6-0.5-1c0-0.5,0.1-0.9,0.2-1.4
	s0.2-0.8,0.2-1.1c-0.2-0.3-0.5-0.5-0.8-0.6c-0.4-0.1-0.7-0.2-1.2-0.2c-0.5,0-0.9,0.1-1.4,0.3c-0.4,0.2-0.9,0.6-1.3,1.1
	c-0.4,0.5-0.7,1.2-0.9,2c-0.2,0.9-0.3,1.9-0.3,3.1c0,1.9,0.4,3.4,1.2,4.6c0.8,1.2,1.9,1.8,3.3,1.8c1,0,1.8-0.2,2.5-0.7
	c0.7-0.5,1.3-1.2,1.8-2.1l1,0.6c-0.7,1.2-1.5,2.1-2.6,2.8C315.7,270,314.6,270.4,313.5,270.4z M334.8,269.7
	c-0.5,0.2-0.9,0.3-1.2,0.4c-0.4,0.1-0.8,0.2-1.2,0.2c-0.8,0-1.4-0.2-1.9-0.6c-0.5-0.4-0.8-0.9-0.9-1.6h-0.1
	c-0.7,0.7-1.4,1.3-2.1,1.7c-0.8,0.4-1.7,0.6-2.7,0.6c-1.1,0-2-0.3-2.8-1c-0.7-0.7-1.1-1.6-1.1-2.7c0-0.6,0.1-1.1,0.2-1.5
	c0.2-0.5,0.4-0.9,0.7-1.2c0.3-0.3,0.6-0.6,1-0.8c0.4-0.2,0.8-0.4,1.2-0.6c0.5-0.2,1.4-0.5,2.8-1c1.4-0.5,2.3-0.8,2.8-1.1V259
	c0-0.1,0-0.4-0.1-0.8c-0.1-0.4-0.2-0.7-0.4-1.1c-0.2-0.4-0.5-0.7-0.9-1c-0.4-0.3-0.9-0.4-1.6-0.4c-0.5,0-0.9,0.1-1.3,0.2
	c-0.4,0.2-0.7,0.3-0.8,0.5c0,0.2,0,0.5,0.1,0.9c0.1,0.4,0.1,0.8,0.1,1.1c0,0.4-0.2,0.7-0.5,1c-0.3,0.3-0.8,0.4-1.3,0.4
	c-0.5,0-0.9-0.2-1.1-0.5c-0.2-0.4-0.4-0.8-0.4-1.2c0-0.5,0.2-0.9,0.5-1.3c0.3-0.4,0.8-0.8,1.3-1.1c0.5-0.3,1-0.5,1.7-0.7
	c0.6-0.2,1.3-0.3,1.9-0.3c0.8,0,1.6,0.1,2.2,0.2c0.6,0.1,1.2,0.4,1.7,0.7c0.5,0.4,0.9,0.9,1.2,1.5c0.3,0.6,0.4,1.5,0.4,2.5
	c0,1.4,0,2.7,0,3.8c0,1.1,0,2.3,0,3.7c0,0.4,0.1,0.7,0.2,0.9c0.1,0.2,0.3,0.4,0.6,0.6c0.1,0.1,0.4,0.1,0.7,0.1c0.3,0,0.7,0,1,0
	L334.8,269.7L334.8,269.7z M329.5,261.7c-0.9,0.3-1.6,0.5-2.3,0.7c-0.6,0.2-1.2,0.5-1.8,0.9c-0.5,0.3-0.9,0.8-1.2,1.2
	c-0.3,0.5-0.4,1-0.4,1.7c0,0.8,0.2,1.5,0.7,1.9c0.4,0.4,1,0.6,1.7,0.6c0.7,0,1.3-0.2,1.9-0.5c0.5-0.4,1-0.8,1.4-1.2L329.5,261.7z
	 M352.6,269.7l-5.2,0.3l-0.2-0.2v-1.4l-0.1,0c-0.5,0.6-1.2,1.1-1.9,1.4c-0.8,0.4-1.6,0.6-2.4,0.6c-0.8,0-1.7-0.2-2.5-0.6
	s-1.5-0.9-2.1-1.6c-0.6-0.7-1.1-1.5-1.4-2.5c-0.3-1-0.5-2.1-0.5-3.2c0-1.1,0.2-2.1,0.6-3.1c0.4-1,0.9-1.8,1.5-2.5
	c0.6-0.7,1.4-1.2,2.3-1.6c0.9-0.4,1.8-0.6,2.7-0.6c0.7,0,1.4,0.1,2,0.3c0.7,0.2,1.2,0.4,1.7,0.7v-5.2c0-0.4-0.1-0.8-0.2-1.2
	c-0.1-0.4-0.3-0.6-0.6-0.8c-0.3-0.2-0.7-0.3-1.1-0.4c-0.5-0.1-1-0.1-1.6-0.2v-0.9l6.1-0.3l0.2,0.2v20.1c0,0.4,0.1,0.7,0.2,0.9
	c0.1,0.2,0.3,0.5,0.6,0.6c0.2,0.1,0.5,0.2,0.8,0.2c0.4,0,0.7,0.1,1,0.1L352.6,269.7L352.6,269.7z M347.1,267.1v-8.7
	c-0.1-0.3-0.2-0.5-0.4-0.8s-0.4-0.6-0.7-0.8c-0.3-0.3-0.6-0.5-1-0.6c-0.4-0.2-0.8-0.2-1.4-0.2c-0.6,0-1.2,0.2-1.7,0.5
	c-0.5,0.3-1,0.8-1.4,1.3c-0.4,0.6-0.7,1.3-0.9,2.2c-0.2,0.9-0.3,1.8-0.3,2.9c0,0.8,0.1,1.6,0.2,2.3c0.2,0.7,0.4,1.3,0.8,1.9
	c0.4,0.6,0.8,1,1.4,1.4c0.5,0.3,1.2,0.5,2,0.5c0.8,0,1.5-0.2,2-0.5C346.3,267.9,346.8,267.5,347.1,267.1z M367.3,266.5
	c-0.6,1.2-1.5,2.1-2.5,2.8c-1.1,0.7-2.3,1.1-3.6,1.1c-1.2,0-2.3-0.2-3.2-0.6c-0.9-0.4-1.6-1-2.2-1.7c-0.6-0.7-1-1.6-1.3-2.5
	c-0.3-1-0.4-2-0.4-3.1c0-1,0.2-1.9,0.5-2.9c0.3-0.9,0.8-1.8,1.4-2.5c0.6-0.7,1.3-1.3,2.1-1.7c0.9-0.4,1.8-0.7,2.9-0.7
	c1.1,0,2,0.2,2.8,0.5c0.8,0.3,1.4,0.8,1.9,1.4c0.5,0.6,0.8,1.2,1,2c0.2,0.8,0.3,1.6,0.3,2.5v1h-9.9c0,1,0.1,1.9,0.3,2.7
	c0.2,0.8,0.5,1.5,0.9,2.1c0.4,0.6,0.9,1.1,1.5,1.4c0.6,0.3,1.4,0.5,2.3,0.5c0.9,0,1.7-0.2,2.3-0.6s1.3-1.2,1.9-2.3L367.3,266.5z
	 M364,260.8c0-0.6,0-1.2-0.1-1.8c-0.1-0.6-0.2-1.2-0.5-1.6c-0.2-0.5-0.6-0.8-1-1.1s-0.9-0.4-1.6-0.4c-1.1,0-1.9,0.4-2.6,1.3
	c-0.7,0.9-1.1,2.1-1.1,3.7L364,260.8L364,260.8z M394.6,270h-7.3v-1c0.2,0,0.5,0,0.7-0.1c0.2,0,0.4-0.1,0.6-0.1
	c0.3-0.1,0.5-0.2,0.6-0.5c0.1-0.2,0.2-0.5,0.2-0.9v-7.7c0-1.1-0.2-1.9-0.7-2.4c-0.5-0.6-1.1-0.9-1.8-0.9c-0.5,0-1,0.1-1.4,0.2
	c-0.4,0.1-0.8,0.4-1.2,0.6c-0.3,0.2-0.5,0.5-0.7,0.7c-0.2,0.3-0.3,0.5-0.4,0.6v8.6c0,0.4,0.1,0.6,0.2,0.9c0.1,0.2,0.3,0.4,0.6,0.5
	c0.2,0.1,0.4,0.2,0.6,0.2c0.2,0,0.4,0.1,0.7,0.1v1h-7.1v-1c0.2,0,0.5,0,0.7-0.1c0.2,0,0.4-0.1,0.6-0.1c0.3-0.1,0.5-0.2,0.6-0.5
	c0.1-0.2,0.2-0.5,0.2-0.9v-7.7c0-1.1-0.2-1.9-0.7-2.4c-0.5-0.6-1.1-0.9-1.8-0.9c-0.5,0-1,0.1-1.4,0.2c-0.4,0.2-0.8,0.4-1.2,0.6
	c-0.3,0.2-0.5,0.5-0.7,0.7c-0.2,0.3-0.4,0.5-0.5,0.6v8.6c0,0.3,0.1,0.6,0.2,0.9c0.1,0.2,0.4,0.4,0.6,0.5c0.2,0.1,0.4,0.2,0.7,0.2
	c0.2,0.1,0.5,0.1,0.7,0.1v1h-7.3v-1c0.2,0,0.5,0,0.7-0.1c0.2,0,0.5-0.1,0.6-0.1c0.3-0.1,0.5-0.2,0.6-0.5c0.1-0.2,0.2-0.5,0.2-0.9
	v-9.3c0-0.3-0.1-0.6-0.2-0.9c-0.1-0.3-0.4-0.5-0.6-0.7c-0.2-0.1-0.4-0.2-0.7-0.3s-0.6-0.1-0.9-0.1v-1l5-0.3l0.2,0.2v2.1h0.1
	c0.3-0.3,0.6-0.6,0.9-0.9c0.4-0.3,0.7-0.6,1-0.8c0.4-0.2,0.8-0.4,1.3-0.6c0.5-0.2,1.1-0.2,1.7-0.2c1,0,1.8,0.3,2.5,0.8
	c0.7,0.5,1.2,1.1,1.5,1.9c0.4-0.4,0.7-0.7,1-0.9c0.3-0.3,0.6-0.6,1.1-0.9c0.4-0.3,0.8-0.5,1.4-0.6c0.5-0.2,1.1-0.2,1.7-0.2
	c1.3,0,2.3,0.4,3,1.2c0.7,0.8,1.1,2.1,1.1,3.8v7.6c0,0.4,0.1,0.6,0.2,0.9c0.1,0.2,0.3,0.4,0.6,0.5c0.2,0.1,0.5,0.2,0.7,0.2
	c0.2,0,0.5,0.1,0.8,0.1L394.6,270L394.6,270z M395.3,274.9c0-0.5,0.1-0.9,0.4-1.2c0.3-0.3,0.6-0.5,1-0.5c0.3,0,0.6,0.1,0.8,0.2
	s0.4,0.3,0.6,0.5c0.1,0.1,0.3,0.4,0.5,0.6c0.2,0.3,0.3,0.5,0.4,0.6c0.5-0.3,1.1-1,1.8-2.1s1.2-2.2,1.5-3c-1-2.4-1.8-4.5-2.6-6.4
	s-1.6-3.8-2.4-5.9c-0.2-0.5-0.5-0.8-1-1.1c-0.5-0.3-0.9-0.4-1.4-0.5v-1h6.8v1.1c-0.3,0-0.7,0.1-1.1,0.2c-0.4,0.1-0.6,0.2-0.6,0.4
	c0,0.1,0,0.2,0.1,0.3c0,0.1,0.1,0.3,0.2,0.4c0.4,1,1,2.4,1.8,4.3c0.8,1.9,1.4,3.4,1.8,4.5c0.5-1.1,0.9-2.2,1.4-3.4
	c0.5-1.2,1-2.5,1.6-4.1c0.1-0.2,0.2-0.5,0.3-0.8c0.1-0.3,0.2-0.6,0.2-0.9c0-0.3-0.2-0.5-0.7-0.7c-0.5-0.2-0.9-0.4-1.3-0.4v-1h5.5
	v0.9c-0.3,0.1-0.7,0.2-1.2,0.5c-0.5,0.3-0.9,0.7-1.1,1.3c-1.2,2.8-2.3,5.3-3.2,7.6c-0.9,2.3-1.6,4-2.1,5.1c-0.6,1.4-1.2,2.5-1.7,3.3
	s-1,1.4-1.5,1.9c-0.5,0.4-0.9,0.7-1.3,0.9c-0.4,0.1-0.8,0.2-1.2,0.2c-0.8,0-1.4-0.2-1.9-0.6C395.5,275.8,395.3,275.4,395.3,274.9z
	 M433.7,260.7c0,1.2-0.2,2.4-0.6,3.6c-0.4,1.2-1,2.2-1.8,3.1c-0.8,0.9-1.7,1.7-2.8,2.2c-1.1,0.6-2.4,0.8-3.8,0.8
	c-1.7,0-3-0.5-4.1-1.6c-1-1.1-1.6-2.5-1.6-4.4c0-1.3,0.2-2.6,0.7-3.8c0.4-1.2,1-2.2,1.8-3.1c0.8-0.9,1.7-1.6,2.8-2.1
	c1.1-0.5,2.3-0.8,3.6-0.8c1.8,0,3.2,0.5,4.2,1.6C433.2,257.4,433.7,258.9,433.7,260.7z M430.6,260.1c0-1.4-0.3-2.5-0.8-3.2
	c-0.5-0.7-1.2-1.1-2.2-1.1c-0.8,0-1.6,0.3-2.4,0.8c-0.7,0.5-1.4,1.4-1.9,2.5c-0.4,0.9-0.7,1.9-0.9,2.9c-0.2,1.1-0.3,2.1-0.3,3
	c0,1.4,0.2,2.5,0.7,3.3c0.5,0.7,1.3,1.1,2.3,1.1c0.9,0,1.7-0.3,2.4-0.8c0.7-0.6,1.3-1.3,1.7-2.2c0.4-0.8,0.8-1.8,1-2.9
	C430.5,262.4,430.6,261.2,430.6,260.1z M442.2,256.6l-2.7,12.5c-0.5,2.2-1.5,4.1-3,5.5s-3.1,2.1-4.7,2.1c-0.9,0-1.5-0.2-2-0.5
	c-0.4-0.3-0.6-0.8-0.6-1.3c0-0.4,0.1-0.8,0.4-1.2c0.3-0.3,0.6-0.5,1.1-0.5c0.3,0,0.6,0.1,0.8,0.2c0.2,0.1,0.4,0.3,0.6,0.5
	c0.1,0.2,0.3,0.4,0.5,0.7s0.3,0.5,0.5,0.8c0.8-0.1,1.4-0.6,2-1.6c0.6-1,1-2.4,1.4-4.2l2.8-13.1h-3l0.3-1.4h2.9l0.2-1
	c0.2-1.2,0.6-2.2,1.2-3.2c0.5-0.9,1.1-1.7,1.8-2.4c0.7-0.6,1.4-1.2,2.2-1.5c0.8-0.4,1.6-0.6,2.4-0.6c0.9,0,1.5,0.2,2,0.5
	c0.4,0.3,0.6,0.8,0.6,1.3c0,0.4-0.1,0.8-0.4,1.2c-0.2,0.3-0.6,0.5-1.2,0.5c-0.3,0-0.6-0.1-0.8-0.2c-0.2-0.1-0.4-0.3-0.6-0.5
	c-0.2-0.3-0.4-0.5-0.5-0.7c-0.1-0.2-0.3-0.5-0.5-0.7c-0.7,0-1.3,0.5-1.9,1.4s-1,2.4-1.4,4.4l-0.3,1.6h3.8l-0.3,1.4L442.2,256.6
	L442.2,256.6z"/>
<path class="st1" d="M151.4,311.6c-1.6-0.7-2.9-1.7-4.1-2.9c-0.2-0.2-0.3-0.4-0.4-0.6c0-0.1,0-0.1,0-0.1c0-0.2,0.1-0.3,0.3-0.5
	l2.2-2.2c0.1-0.1,0.3-0.2,0.4-0.2c0.2,0,0.4,0.1,0.7,0.4c0.9,0.9,1.7,1.5,2.4,1.9c1.1,0.6,2.2,0.9,3.3,0.9c0.6,0,1.2-0.1,1.7-0.3
	s1-0.4,1.3-0.7c0.4-0.3,0.6-0.6,0.8-1s0.3-0.8,0.3-1.2c0-0.9-0.5-1.7-1.6-2.3c-0.3-0.2-0.7-0.3-1.1-0.5s-0.8-0.3-1.5-0.4l-0.4-0.1
	c-2.7-0.8-4.8-1.8-6.1-2.9c-1.4-1.2-2.1-2.7-2.1-4.5c0-1,0.2-1.9,0.6-2.8c0.4-0.8,1-1.6,1.8-2.2c0.8-0.6,1.7-1.1,2.8-1.4
	c1.1-0.3,2.3-0.5,3.6-0.5c1.4,0,2.8,0.3,4.2,1c1.3,0.6,2.5,1.5,3.5,2.5c0.2,0.2,0.3,0.4,0.3,0.6c0,0.2-0.1,0.4-0.3,0.7l-1.8,2
	c-0.1,0.1-0.3,0.2-0.4,0.2c-0.2,0-0.5-0.1-0.8-0.4c-0.7-0.6-1.4-1.1-2-1.5c-1-0.5-1.9-0.8-2.7-0.8c-1.1,0-1.9,0.2-2.5,0.5
	c-0.8,0.5-1.3,1.2-1.3,2.2c0,0.4,0.1,0.8,0.3,1.1c0.2,0.3,0.6,0.6,1,0.8c0.4,0.2,0.8,0.4,1.4,0.6s1.2,0.4,2.1,0.6
	c1.3,0.4,2.4,0.8,3.3,1.2c0.9,0.4,1.8,0.9,2.4,1.4c0.8,0.6,1.4,1.4,1.8,2.2c0.4,0.8,0.6,1.8,0.6,2.9s-0.2,2.1-0.7,3.1
	c-0.5,0.9-1.2,1.7-2.1,2.4c-0.8,0.7-1.8,1.2-2.9,1.5c-1.1,0.4-2.2,0.5-3.4,0.5C154.7,312.7,153,312.4,151.4,311.6z M171.4,311.7
	v-23.1c0-0.2,0.1-0.4,0.2-0.5c0.1-0.1,0.3-0.2,0.5-0.2h3.4c0.5,0,0.7,0.2,0.7,0.7v19.3h9.6c0.2,0,0.4,0.1,0.5,0.2
	c0.1,0.1,0.2,0.3,0.2,0.6v3c0,0.5-0.2,0.7-0.7,0.7h-13.8C171.7,312.4,171.4,312.2,171.4,311.7z M191.8,311.8v-23.2
	c0-0.4,0.2-0.6,0.6-0.6h16.1c0.5,0,0.7,0.2,0.7,0.6v3.2c0,0.4-0.2,0.7-0.7,0.7h-11.9v5h9.1c0.5,0,0.7,0.2,0.7,0.7v3.1
	c0,0.4-0.2,0.6-0.7,0.6h-9.1v6.1h12.2c0.5,0,0.7,0.2,0.7,0.7v3.2c0,0.4-0.2,0.7-0.7,0.7h-16.4C192,312.4,191.8,312.2,191.8,311.8z
	 M215.5,311.8v-23.2c0-0.4,0.2-0.6,0.6-0.6h16.1c0.5,0,0.7,0.2,0.7,0.6v3.2c0,0.4-0.2,0.7-0.7,0.7h-11.9v5h9.1
	c0.5,0,0.7,0.2,0.7,0.7v3.1c0,0.4-0.2,0.6-0.7,0.6h-9.1v6.1h12.2c0.5,0,0.7,0.2,0.7,0.7v3.2c0,0.4-0.2,0.7-0.7,0.7h-16.4
	C215.7,312.4,215.5,312.2,215.5,311.8z M239.1,311.8v-23.1c0-0.2,0.1-0.4,0.2-0.5c0.1-0.1,0.3-0.2,0.5-0.2h9.6c1.1,0,2.1,0.2,3,0.6
	c0.9,0.4,1.8,1,2.5,1.8c0.7,0.7,1.2,1.6,1.6,2.5c0.4,0.9,0.6,1.9,0.6,2.9c0,1-0.2,2-0.6,2.9c-0.4,0.9-0.9,1.8-1.6,2.5
	c-0.7,0.7-1.5,1.3-2.5,1.8s-2,0.6-3,0.6h-5.4v8.1c0,0.5-0.2,0.7-0.7,0.7h-3.5C239.3,312.4,239.1,312.2,239.1,311.8z M248.3,299.5
	c1.1,0,2-0.4,2.7-1.1c0.3-0.3,0.6-0.7,0.8-1.1c0.2-0.4,0.3-0.9,0.3-1.4c0-0.5-0.1-1-0.3-1.4c-0.2-0.5-0.4-0.8-0.8-1.2
	c-0.7-0.7-1.6-1.1-2.7-1.1h-4.5v7.3L248.3,299.5L248.3,299.5z M274.3,312.3c-0.1-0.1-0.2-0.3-0.1-0.5l2.5-23.2
	c0.1-0.4,0.3-0.6,0.7-0.6h4.3c0.2,0,0.3,0,0.4,0.1c0.1,0.1,0.1,0.2,0.2,0.5l5.9,16.3l5.8-16.3c0.1-0.2,0.2-0.4,0.2-0.5
	c0.1-0.1,0.2-0.1,0.4-0.1h4.4c0.4,0,0.6,0.2,0.7,0.6l2.5,23.2c0,0.2,0,0.4-0.1,0.5c-0.1,0.1-0.3,0.2-0.5,0.2h-3.3
	c-0.2,0-0.4,0-0.5-0.1c-0.1-0.1-0.2-0.3-0.2-0.5l-1.7-15.6l-5.6,15.1c-0.1,0.3-0.2,0.4-0.3,0.5c-0.1,0.1-0.2,0.1-0.4,0.1h-2.8
	c-0.2,0-0.3,0-0.4-0.1c-0.1-0.1-0.2-0.2-0.3-0.5l-5.5-15.1l-1.7,15.6c0,0.2-0.1,0.4-0.2,0.5s-0.3,0.2-0.5,0.2h-3.4
	C274.6,312.4,274.4,312.4,274.3,312.3z M308.1,311.8v-23.2c0-0.4,0.2-0.6,0.6-0.6h16.1c0.5,0,0.7,0.2,0.7,0.6v3.2
	c0,0.4-0.2,0.7-0.7,0.7h-11.9v5h9.1c0.5,0,0.7,0.2,0.7,0.7v3.1c0,0.4-0.2,0.6-0.7,0.6h-9.1v6.1h12.2c0.5,0,0.7,0.2,0.7,0.7v3.2
	c0,0.4-0.2,0.7-0.7,0.7h-16.4C308.3,312.4,308.1,312.2,308.1,311.8z M331.7,311.8v-23.2c0-0.4,0.2-0.6,0.7-0.6h7.9
	c1,0,2,0.1,3.1,0.4c1,0.3,2,0.7,2.9,1.2c0.9,0.5,1.8,1.2,2.6,1.9c0.8,0.7,1.4,1.5,2,2.4c0.6,0.9,1,1.9,1.4,3
	c0.3,1.1,0.5,2.1,0.5,3.3c0,1.6-0.3,3.2-0.9,4.6c-0.6,1.5-1.5,2.7-2.6,3.9c-1.1,1.1-2.4,2-3.9,2.7s-3.1,1-4.8,1.1h-8
	C331.9,312.4,331.7,312.2,331.7,311.8z M339.8,308c1.1,0,2.2-0.2,3.1-0.6c1-0.4,1.8-1,2.6-1.7s1.3-1.5,1.7-2.5
	c0.4-0.9,0.6-1.9,0.6-3c0-1.1-0.2-2.1-0.6-3c-0.4-0.9-1-1.8-1.7-2.5c-0.7-0.7-1.6-1.3-2.6-1.7c-1-0.4-2-0.6-3.1-0.6h-3.2V308H339.8z
	 M358.7,311.8v-23.1c0-0.5,0.2-0.7,0.7-0.7h3.6c0.4,0,0.6,0.2,0.6,0.7v23.1c0,0.5-0.2,0.7-0.6,0.7h-3.6
	C358.9,312.4,358.7,312.2,358.7,311.8z M379.1,312.3c-1.1-0.3-2.1-0.7-3-1.3c-0.9-0.5-1.8-1.2-2.6-2c-0.8-0.8-1.4-1.6-2-2.6
	c-0.6-0.9-1-2-1.3-3c-0.3-1.1-0.4-2.2-0.4-3.3c0-1.1,0.1-2.3,0.4-3.3c0.3-1.1,0.7-2.1,1.3-3c0.6-0.9,1.2-1.8,2-2.5
	c0.8-0.8,1.6-1.4,2.6-1.9c1-0.5,2-1,3-1.3c1.1-0.3,2.2-0.4,3.3-0.4c1.4,0,2.7,0.2,3.9,0.6c1.2,0.4,2.3,1,3.3,1.7
	c0.2,0.2,0.3,0.3,0.3,0.5c0,0.1,0,0.2-0.1,0.3l-1.7,3c-0.1,0.1-0.2,0.2-0.4,0.2c-0.2,0-0.3-0.1-0.5-0.2c-0.8-0.5-1.6-0.9-2.3-1.1
	c-0.8-0.3-1.6-0.4-2.5-0.4c-1.1,0-2.1,0.2-3.1,0.6c-0.9,0.4-1.8,1-2.5,1.7c-0.7,0.7-1.2,1.6-1.6,2.6c-0.4,1-0.6,2-0.6,3.1
	c0,1.1,0.2,2.1,0.6,3.1c0.4,1,0.9,1.8,1.6,2.6c0.7,0.7,1.5,1.3,2.5,1.8c0.9,0.4,2,0.6,3.1,0.6c0.9,0,1.7-0.1,2.5-0.4
	c0.8-0.3,1.5-0.7,2.1-1.1c0.2-0.2,0.4-0.3,0.6-0.3c0.2,0,0.3,0.1,0.4,0.2l1.7,2.8c0.1,0.1,0.2,0.3,0.2,0.4c0,0.2-0.1,0.4-0.4,0.5
	c-1,0.7-2.1,1.3-3.3,1.7s-2.5,0.6-3.9,0.6C381.3,312.8,380.2,312.6,379.1,312.3z M396.7,311.8v-23.1c0-0.5,0.2-0.7,0.7-0.7h3.6
	c0.4,0,0.6,0.2,0.6,0.7v23.1c0,0.5-0.2,0.7-0.6,0.7h-3.6C397,312.4,396.7,312.2,396.7,311.8z M409.4,311.7v-23
	c0-0.2,0.1-0.4,0.2-0.5s0.3-0.2,0.5-0.2h3.9c0.2,0,0.4,0,0.5,0.1c0.2,0.1,0.3,0.2,0.4,0.4l10.8,15.6v-15.6c0.1-0.2,0.2-0.3,0.3-0.4
	c0.1-0.1,0.3-0.1,0.4-0.1h3.3c0.2,0,0.4,0.1,0.5,0.2c0.2,0.1,0.3,0.3,0.3,0.5v23c0,0.5-0.3,0.7-0.8,0.7h-3.2c-0.2,0-0.4,0-0.5-0.1
	c-0.1-0.1-0.3-0.2-0.4-0.4l-11.5-16.5v16.3c0,0.5-0.2,0.7-0.7,0.7h-3.3C409.6,312.4,409.4,312.2,409.4,311.7z M437.4,311.8v-23.2
	c0-0.4,0.2-0.6,0.6-0.6h16.1c0.5,0,0.7,0.2,0.7,0.6v3.2c0,0.4-0.2,0.7-0.7,0.7h-11.9v5h9.1c0.5,0,0.7,0.2,0.7,0.7v3.1
	c0,0.4-0.2,0.6-0.7,0.6h-9.1v6.1h12.2c0.5,0,0.7,0.2,0.7,0.7v3.2c0,0.4-0.2,0.7-0.7,0.7h-16.4C437.6,312.4,437.4,312.2,437.4,311.8z
	 M462.2,287.5c0.1,0,0.2,0.1,0.2,0.2v0.8c0,0.2-0.1,0.2-0.2,0.2h-1.5v4.8c0,0.2-0.1,0.3-0.3,0.3h-0.8c-0.1,0-0.2-0.1-0.2-0.2v-4.8
	H458c-0.2,0-0.2-0.1-0.2-0.2v-0.7c0-0.1,0-0.3,0.2-0.3H462.2z M469.3,293.6c0,0.2-0.1,0.2-0.2,0.2h-0.8c-0.1,0-0.2-0.1-0.2-0.2
	l-0.3-3.6l-1.3,3.4c0,0.1-0.1,0.2-0.2,0.2h-0.5c-0.1,0-0.2-0.1-0.2-0.2l-1.2-3.4l-0.3,3.6c0,0.2-0.1,0.2-0.2,0.2h-0.7
	c-0.2,0-0.3-0.1-0.3-0.2l0.3-5.8c0-0.1,0.1-0.2,0.2-0.2h1.1c0.1,0,0.2,0,0.3,0.1l1.2,3.4l1.3-3.3c0-0.1,0.1-0.2,0.4-0.2h0.9
	c0.1,0,0.2,0.1,0.3,0.2L469.3,293.6z"/>
<path class="st2" d="M-23.5,311.9c-0.2-1.6-0.7-3.2-1.4-4.6c-2.6-5.6-8.3-9.6-14.9-9.6c-6.6,0-12.3,3.9-14.9,9.6
	c-0.7,1.4-1.1,3-1.4,4.6c-0.1,1,0.7,1.9,1.7,1.9h29.3C-24.1,313.8-23.3,312.9-23.5,311.9z"/>
<path class="st3" d="M-24.8,307.3h-29.9c2.6-5.6,8.3-9.6,14.9-9.6C-33.1,297.7-27.4,301.6-24.8,307.3z"/>
<path class="st1" d="M-76.9,266.6c-3.5-8.8-7.1-17.5-10.5-26.3c-0.9-2.4-2.5-3.4-5-3.4c-2.4,0-2.1,0-4.8,0s-4.1,0.9-5.1,3.5
	c-9.2,23.2-18.6,46.3-27.9,69.5c-1,2.4-0.6,3,2,3c1.6,0,3.2,0,4.8,0c8.2-0.1,6.6,1.3,9.9-6.8c0.3-0.7,1.1-2.7,2-5.2
	c0.8-2.2,2.5-6.1,3.4-8.5c0,0,24.8-0.1,25.7-0.1c0.8,0,1.5-0.5,2-1.8c0.5-1.3,5.2-13,5.7-14.3c0.4-0.8,0.5-2.2,0.1-3.3
	C-75.1,271.6-76.4,267.9-76.9,266.6z M-104,281c3.1-8.5,5.8-15.5,9.1-24.4l9.2,24.2L-104,281z M-26.6,266.6
	c-3.5-8.8-7.1-17.5-10.5-26.3c-0.9-2.4-2.3-3.4-5-3.4H-47c-2.7,0-4.1,0.9-5.1,3.5c-9.2,23.2-18.6,46.3-27.9,69.5c-1,2.4-0.6,3,2,3
	c1.6,0,3.2,0,4.8,0c6.3-0.1,6.8,0.7,8.2-2.5c2.4-11.8,13-20.6,25.2-20.6c4.6,0,9,1.3,12.8,3.5c0.8,0.4,1.9,0.5,2.9-0.4
	c1-1,3.5-3.5,4.2-4.3c0.7-0.7,1.1-1.9,0.6-3C-21.7,279.3-25.8,268.5-26.6,266.6z M-37.6,277.5c-1.9-0.1-3.7-0.1-5.4-0.1
	c-3.2,0.1-6.6,0.6-9.9,1.4c2.7-7.3,5.4-14.6,8.3-22.3l8,21C-36.9,277.6-37.2,277.5-37.6,277.5z M36.1,281.3
	c-1.3-2.6-3.1-4.8-5.6-6.8c-2.1-1.7-4.7-3.2-7.6-4.4c-2.9-1.3-6.4-2.5-10.3-3.6c-2.6-0.7-4.8-1.4-6.4-2c-1.7-0.6-3.1-1.2-4.3-1.9
	c-1.4-0.7-2.5-1.6-3.2-2.5c-0.7-0.9-1.1-2-1.1-3.3c0-3.1,1.3-5.4,4-6.8c1.9-1,4.5-1.4,7.9-1.4c2.6,0,5.4,0.8,8.4,2.5
	c2,1.1,4.1,2.7,6.3,4.6c1,0.8,1.9,1.3,2.5,1.3c0.5,0,0.9-0.2,1.4-0.6l5.7-6.1c0.7-0.7,1-1.4,1-2.1c0-0.6-0.3-1.3-0.9-1.9
	c-3.1-3.2-6.7-5.8-10.8-7.8c-4.3-2.1-8.7-3.2-13-3.2c-4,0-7.8,0.5-11.2,1.5c-3.4,1-6.4,2.4-8.8,4.3c-2.5,1.9-4.4,4.1-5.7,6.8
	c-1.3,2.6-2,5.5-2,8.7c0,5.6,2.2,10.3,6.5,14.1c4.1,3.5,10.4,6.6,19,9.1l1.4,0.4c1.9,0.5,3.4,1,4.6,1.4c1.1,0.4,2.2,0.9,3.3,1.4
	c3.4,1.9,5.1,4.2,5.1,7c0,1.3-0.3,2.6-0.9,3.8c-0.4,0.9-1,1.6-1.6,2.3v0c0,0,0,0,0,0c-0.3,0.3-0.5,0.5-0.8,0.8
	c-1.2,1-2.6,1.7-4.2,2.3c-1.6,0.5-3.4,0.8-5.4,0.8c-2.1,0-4.2-0.4-6.2-1.1c-0.1,0-0.2,0-0.2-0.1c-3.6-1.1-7-2.9-10.1-4.8
	c-0.3-0.2-0.6-0.4-0.9-0.6c-0.6-0.4-1.2-0.8-1.7-1.3c-1.1-0.8-1.8-1-2.4-0.9c-0.5,0-0.9,0.3-1.3,0.7l-4.3,4.4l-0.7,0.9
	c-0.6,0.7-0.9,1.4-0.9,2.1c0.1,1.2,1.2,2.2,1.3,2.3l0,0c0.6,0.6,1.2,1.2,1.8,1.8c0.3,0.3,0.6,0.6,1,0.9c0.3,0.3,0.7,0.6,1,0.8
	c0.3,0.3,0.7,0.5,1,0.8c1,0.8,2.1,1.5,3.2,2.2c1.3,0.8,2.8,1.6,4.2,2.3c5.1,2.3,10.2,3.5,15.4,3.5c3.7,0,7.3-0.5,10.7-1.7
	c3.4-1.1,6.5-2.7,9.1-4.8c2.7-2.1,4.9-4.6,6.4-7.5c1.5-2.9,2.3-6.1,2.3-9.6C38,286.9,37.4,283.9,36.1,281.3z M129.9,310.7l-7.6-71.5
	c0,0,0-0.1,0-0.1l0-0.2c-0.1-1.3-0.8-2-2.1-2h-13.6c-1,0-1.4,0.6-1.9,1.9L86.7,289c0,0,0,0,0,0l-0.1,0.2l-12.5-34.5
	c-0.3-0.3-0.7,0-0.8,0.6c-0.8,5.4-3,11-6.7,14.6l-0.6,0.4l14.2,39c0.5,1.5,1,1.8,2,1.8c0,0,0,0,0,0h8.6c0.2,0,0.3,0,0.5,0
	c0.5-0.1,0.8-0.3,1.2-0.7c0,0,0.1-0.1,0.1-0.1c0.1-0.2,0.3-0.5,0.4-0.9l17.4-46.9l1.6,15.1l3.6,33.3c0.2,1.3,0.7,1.9,1.9,1.9
	c0.1,0,0.1,0,0.2,0H128c0.1,0,0.2,0,0.3,0c0.1,0,0.2,0,0.3,0c0.9-0.2,1.5-0.8,1.4-1.8C129.9,310.8,129.9,310.8,129.9,310.7z
	 M62.1,273.6c0,0-1.1,0.4-1.5,0.6c-3,1.5-6.4,2.4-9.9,2.5h-0.3c-0.6,0-1.4-0.1-1.8-0.2c-0.8-0.1-1.3,0.2-1.4,0.8
	c-0.4,3.6-3.6,33.3-3.6,33.3c-0.1,1.3,0.6,2.1,2,2.1h0.1c0.3,0.1,0.6,0.1,0.9,0.1c1.5,0,3-0.1,4.5-0.1c1.5,0,3,0,4.5,0.1
	c0.4,0,0.7,0,0.9-0.1c0.2,0,0.3-0.1,0.4-0.1c0,0,0.1,0,0.1,0c0.8-0.3,1.2-1.1,1.3-2.3c0-0.2,0-0.4,0.1-0.6c0.1-0.7,0.2-1.4,0.2-2.1
	c0.3-2.7,0.6-5.4,0.9-8.2c0.5-4.1,0.9-8.2,1.4-12.4C61.2,283,62.1,273.6,62.1,273.6z"/>
<path class="st1" d="M57.6,238.7c-1.4-0.8-2.9-1.4-4.5-1.8c-1-0.2-2,0.5-2.1,1.5L48,267.4c-0.1,1,0.7,1.9,1.7,1.9
	c1.6-0.1,3.2-0.4,4.8-0.9c5.9-2,10.4-7.2,11.1-13.8C66.2,248,62.9,241.9,57.6,238.7z"/>
<path class="st0" d="M54.4,268.4l2.5-23.4l0.7-6.3c5.3,3.2,8.6,9.3,7.9,15.9C64.8,261.2,60.3,266.4,54.4,268.4z"/>
</svg>
